<svg width="40" height="40" viewBox="0 0 40 40" fill="none" xmlns="http://www.w3.org/2000/svg">
<g clip-path="url(#clip0_2_15)">
<path d="M11.6667 10V5C11.6667 4.55798 11.8423 4.13405 12.1548 3.82149C12.4674 3.50893 12.8913 3.33334 13.3333 3.33334H26.6667C27.1087 3.33334 27.5326 3.50893 27.8452 3.82149C28.1577 4.13405 28.3333 4.55798 28.3333 5V10H36.6667V13.3333H33.3333V35C33.3333 35.442 33.1577 35.866 32.8452 36.1785C32.5326 36.4911 32.1087 36.6667 31.6667 36.6667H8.33333C7.8913 36.6667 7.46738 36.4911 7.15482 36.1785C6.84226 35.866 6.66667 35.442 6.66667 35V13.3333H3.33333V10H11.6667ZM22.3567 23.3333L25.3033 20.3867L22.9467 18.03L20 20.9767L17.0533 18.03L14.6967 20.3867L17.6433 23.3333L14.6967 26.28L17.0533 28.6367L20 25.69L22.9467 28.6367L25.3033 26.28L22.3567 23.3333ZM15 6.66667V10H25V6.66667H15Z" fill="#1327CC"/>
</g>
<defs>
<clipPath id="clip0_2_15">
<rect width="40" height="40" fill="white"/>
</clipPath>
</defs>
</svg>
