<svg width="160" height="40" viewBox="0 0 160 40" fill="none" xmlns="http://www.w3.org/2000/svg">
<g clip-path="url(#clip0_2_31)">
<path d="M45 15H55C55.442 15 55.866 14.8244 56.1785 14.5118C56.4911 14.1993 56.6667 13.7754 56.6667 13.3333V3.33334H73.3367C74.255 3.33334 75 4.09167 75 4.98667V35.0133C74.9996 35.452 74.825 35.8725 74.5147 36.1825C74.2044 36.4925 73.7836 36.6667 73.345 36.6667H46.655C46.4361 36.6651 46.2197 36.6205 46.0181 36.5353C45.8165 36.4502 45.6336 36.3261 45.4799 36.1703C45.3262 36.0144 45.2047 35.8298 45.1224 35.627C45.0401 35.4242 44.9985 35.2072 45 34.9883V15ZM45 11.6667L53.3333 3.33834V11.6667H45Z" fill="#3549EE"/>
</g>
<g clip-path="url(#clip1_2_31)">
<path d="M115 25.405V35.0133C115 35.452 114.825 35.8725 114.515 36.1825C114.204 36.4925 113.784 36.6667 113.345 36.6667H86.655C86.4361 36.6651 86.2197 36.6205 86.0181 36.5353C85.8165 36.4502 85.6336 36.3261 85.4799 36.1703C85.3262 36.0144 85.2047 35.8298 85.1224 35.627C85.0401 35.4242 84.9985 35.2072 85 34.9883V15H95C95.442 15 95.866 14.8244 96.1785 14.5118C96.4911 14.1993 96.6667 13.7754 96.6667 13.3333V3.33334H113.337C114.255 3.33334 115 4.09167 115 4.98667V11.2617L100.002 26.2617L99.9917 33.325L107.068 33.335L115 25.405ZM116.297 14.68L118.653 17.0367L105.69 30L103.33 29.9967L103.333 27.6433L116.297 14.68V14.68ZM85 11.6667L93.3333 3.33834V11.6667H85Z" fill="#3549EE"/>
</g>
<g clip-path="url(#clip2_2_31)">
<path d="M131.667 10V5C131.667 4.55798 131.842 4.13405 132.155 3.82149C132.467 3.50893 132.891 3.33334 133.333 3.33334H146.667C147.109 3.33334 147.533 3.50893 147.845 3.82149C148.158 4.13405 148.333 4.55798 148.333 5V10H156.667V13.3333H153.333V35C153.333 35.442 153.158 35.866 152.845 36.1785C152.533 36.4911 152.109 36.6667 151.667 36.6667H128.333C127.891 36.6667 127.467 36.4911 127.155 36.1785C126.842 35.866 126.667 35.442 126.667 35V13.3333H123.333V10H131.667ZM142.357 23.3333L145.303 20.3867L142.947 18.03L140 20.9767L137.053 18.03L134.697 20.3867L137.643 23.3333L134.697 26.28L137.053 28.6367L140 25.69L142.947 28.6367L145.303 26.28L142.357 23.3333ZM135 6.66667V10H145V6.66667H135Z" fill="#3549EE"/>
</g>
<g clip-path="url(#clip3_2_31)">
<path d="M35 4.98667V35.0133C34.9965 35.451 34.821 35.8698 34.5113 36.1791C34.2016 36.4885 33.7827 36.6636 33.345 36.6667H6.655C6.21636 36.6667 5.79565 36.4925 5.48533 36.1825C5.175 35.8725 5.00044 35.452 5 35.0133V4.98667C5.00349 4.54897 5.17903 4.13021 5.4887 3.82086C5.79836 3.5115 6.2173 3.33639 6.655 3.33334H33.345C34.2583 3.33334 35 4.07334 35 4.98667V4.98667ZM11.6667 6.66667V21.6667L17.5 18.3333L23.3333 21.6667V6.66667H11.6667Z" fill="#3549EE"/>
</g>
<defs>
<clipPath id="clip0_2_31">
<rect width="40" height="40" fill="white" transform="translate(40)"/>
</clipPath>
<clipPath id="clip1_2_31">
<rect width="40" height="40" fill="white" transform="translate(80)"/>
</clipPath>
<clipPath id="clip2_2_31">
<rect width="40" height="40" fill="white" transform="translate(120)"/>
</clipPath>
<clipPath id="clip3_2_31">
<rect width="40" height="40" fill="white"/>
</clipPath>
</defs>
</svg>
