<svg width="40" height="40" viewBox="0 0 40 40" fill="none" xmlns="http://www.w3.org/2000/svg">
<g clip-path="url(#clip0_7_3)">
<path d="M8.33333 36.6667C7.89131 36.6667 7.46738 36.4911 7.15482 36.1785C6.84226 35.866 6.66667 35.442 6.66667 35V5C6.66667 4.55798 6.84226 4.13405 7.15482 3.82149C7.46738 3.50893 7.89131 3.33334 8.33333 3.33334H31.6667C32.1087 3.33334 32.5326 3.50893 32.8452 3.82149C33.1577 4.13405 33.3333 4.55798 33.3333 5V35C33.3333 35.442 33.1577 35.866 32.8452 36.1785C32.5326 36.4911 32.1087 36.6667 31.6667 36.6667H8.33333ZM25 26.6667L33.3333 20L25 13.3333V18.3333H15V21.6667H25V26.6667Z" fill="#1327CC"/>
</g>
<defs>
<clipPath id="clip0_7_3">
<rect width="40" height="40" fill="white"/>
</clipPath>
</defs>
</svg>
