<svg width="40" height="40" viewBox="0 0 40 40" fill="none" xmlns="http://www.w3.org/2000/svg">
<g clip-path="url(#clip0_2_27)">
<path d="M35 4.98667V35.0133C34.9965 35.451 34.821 35.8698 34.5113 36.1791C34.2016 36.4885 33.7827 36.6636 33.345 36.6667H6.655C6.21636 36.6667 5.79565 36.4925 5.48533 36.1825C5.175 35.8725 5.00044 35.452 5 35.0133V4.98667C5.00349 4.54897 5.17903 4.13021 5.4887 3.82086C5.79836 3.5115 6.2173 3.33639 6.655 3.33334H33.345C34.2583 3.33334 35 4.07334 35 4.98667V4.98667ZM11.6667 6.66667V21.6667L17.5 18.3333L23.3333 21.6667V6.66667H11.6667Z" fill="#1327CC"/>
</g>
<defs>
<clipPath id="clip0_2_27">
<rect width="40" height="40" fill="white"/>
</clipPath>
</defs>
</svg>
