<svg width="40" height="40" viewBox="0 0 40 40" fill="none" xmlns="http://www.w3.org/2000/svg">
<g clip-path="url(#clip0_2_7)">
<path d="M5 15H15C15.442 15 15.866 14.8244 16.1785 14.5118C16.4911 14.1993 16.6667 13.7754 16.6667 13.3333V3.33334H33.3367C34.255 3.33334 35 4.09167 35 4.98667V35.0133C34.9996 35.452 34.825 35.8725 34.5147 36.1825C34.2044 36.4925 33.7836 36.6667 33.345 36.6667H6.655C6.43613 36.6651 6.2197 36.6205 6.01808 36.5353C5.81645 36.4502 5.63358 36.3261 5.4799 36.1703C5.32621 36.0144 5.20474 35.8298 5.12239 35.627C5.04005 35.4242 4.99847 35.2072 5 34.9883V15ZM5 11.6667L13.3333 3.33834V11.6667H5Z" fill="#1327CC"/>
</g>
<defs>
<clipPath id="clip0_2_7">
<rect width="40" height="40" fill="white"/>
</clipPath>
</defs>
</svg>
